ply
format ascii 1.0
element vertex 678
property float x
property float y
property float z
property uchar red
property uchar green
property uchar blue
end_header
 0.192194   0.68334 -0.198752 0 255 0
0.0239887   1.08972 -0.137217 0 255 0
-0.192028 0.0608107 -0.126503 0 255 0
-0.00573024    0.940379   -0.286451 0 255 0
-1.09204 0.779148 0.462269 0 255 0
0.0765372  0.589677 -0.143991 0 255 0
-0.012911  0.886514 -0.210222 0 255 0
0.0268528   1.21592 -0.199846 0 255 0
0.0702577   1.42307   1.48077 130 128 133
-2.48242   0.8401  1.44192 163 190 220
0.876556  1.79133  1.94458 184 176 173
1.31035  1.1043 1.41688 142 145 154
-0.0335188    0.94019    1.18262 135 137 150
0.0372985   1.10374   1.16543 137 140 147
-0.0500801   0.774978    1.12248 132 136 148
0.0849524  0.681101   1.20758 138 140 155
-1.45392 0.891438   1.2392 148 154 168
-1.67213 0.802498  1.01952 127 133 147
1.50793 1.21893 1.45518 141 140 148
 1.11835 0.689974  1.31598 140 144 156
 1.48965 0.577506  1.38892 148 152 164
-0.716459  0.690644   1.09656 138 149 167
-1.71119 0.843489 0.972372 120 116 115
-1.79457 0.750428 0.953627 119 115 116
-2.75023 0.784392  1.43434 125 119 123
-1.04998 0.511777   1.2923 144 140 154
2.58042 1.55543 2.05336 128 121 115
-0.0904868   0.198759    1.54909 139 138 146
2.36958 1.56549 1.86763 160 155 151
0.0170079  0.842118   1.21598 134 138 150
  1.76956 -0.163695   2.04439 181 171 169
-2.45315  1.06841  1.43927 124 114 112
 1.91182 0.373581  1.47212 149 152 167
 1.83338 0.454078  1.40727 148 150 163
0.925271  1.15026  1.29378 49 0 2
1.89076  1.3028 1.56827 140 112 109
2.22667 1.17517 1.64589 77 77 79
 1.25007 0.932398  1.26042 58 56 69
-1.3366 1.38045 1.29416 128 127 132
 2.31348 0.632877  1.60445 129 124 121
-1.39323  1.33888  1.27434 132 131 137
0.268278  0.99724  1.22809 138 140 152
-1.50309  1.31093  1.28056 137 137 147
0.328811  1.23261   1.2095 135 136 141
0.380964 0.888499  1.21149 138 140 152
-0.642917   0.90669   1.05509 149 152 167
0.0286591   1.16081   1.07363 149 149 157
-1.03576  1.36003  1.24525 137 135 136
-0.970137   1.15192   1.09488 149 151 163
0.204376  1.21383  1.14616 127 130 135
0.312636  1.34118  1.28293 141 140 146
-0.43751 0.870167 0.864062 153 162 179
-0.297976   1.12166   1.02237 131 131 143
-0.333322   1.12514   1.05636 139 141 153
-0.687381   1.10499   1.13064 150 141 146
 1.58152 0.823707  1.42383 160 145 150
0.263687 0.942405  1.15616 140 143 158
0.693635  1.01798  1.17846 159 159 171
-0.725886   1.15716   1.06123 118 121 130
-1.79376  1.27216  1.28347 124 124 132
0.214388  1.18034  1.12164 141 139 142
0.640825  1.26901    1.331 139 139 147
-1.68731  1.24262  1.25048 132 135 142
0.155626    1.084  1.17859 142 144 156
-1.87046  1.11711  1.23127 136 134 137
-0.45908  1.41019  1.23947 96 93 100
1.67577 1.30721 1.57662 115 93 96
1.39624 1.08091 1.35463 130 117 126
1.68516 1.27471 1.54699 119 94 97
0.435545   1.2093  1.16295 108 65 72
0.457221  1.23002  1.28164 121 82 87
1.58228 1.11396 1.40404 99 104 110
 1.2576  1.2391 1.41523 20 19 25
-0.775783  0.615899   1.02081 147 153 167
-0.708024   0.24432   1.18671 136 136 144
1.88772 1.29543 1.60919 118 100 100
 1.8165  1.2964 1.58066 136 134 137
  1.15935 0.0359216    1.4819 139 123 133
-0.0500801   0.774978    1.12248 132 136 148
0.0257175  0.878023  0.993171 135 139 151
-0.183986  0.645823   1.22914 133 137 149
0.171724 0.775151  1.15864 154 156 169
0.458875  0.73617  1.22727 136 142 156
-0.357369  0.897962   1.11399 139 143 155
-0.921727  0.937543   1.06084 150 145 152
-0.0639098   0.881796    1.11969 143 146 161
-0.0881948    0.88109    1.11858 143 146 161
-0.0099912   0.776596    1.11151 143 146 163
-1.52374 0.771682  1.08366 142 148 162
 1.74665 0.715459  1.45525 166 169 184
 1.72764 0.722177  1.45599 171 173 186
-1.59875 0.947406  1.18661 134 143 158
-1.76952 0.558303  1.10024 140 109 115
-1.28081 0.816165  1.08877 151 146 150
 2.41513 0.815683  1.71061 85 88 97
 2.32708 0.922253  1.64996 98 101 108
 2.21169 0.647165  1.52226 130 125 129
-1.79969 0.729179  1.25125 132 138 152
-1.8426 0.76866 1.08894 26 25 31
-0.814486   1.37582   1.18923 140 128 128
0.291319 0.899179   1.1653 53 54 74
0.199991 0.874846  1.16979 135 137 150
0.423394 0.800842  1.20334 77 80 95
0.426039 0.776896  1.20528 81 87 101
 1.06627 0.663598  1.29314 0 2 14
-1.31442  0.98112  1.14834 143 147 159
-1.62534 0.542229 0.993024 127 130 137
-1.78868 0.620654  1.10715 133 135 147
-0.159846  0.706722   1.15791 134 134 144
-0.982172  0.162498   1.24415 135 132 139
-1.61595 0.387759  1.17199 140 139 147
0.0733646  0.745213   1.18925 132 132 142
-0.353339  0.761548  0.567406 145 157 181
-1.76306 0.850038  1.07822 129 131 144
  1.49594 -0.283043   1.64525 192 185 179
-1.34559 0.236983  1.32279 135 139 151
 1.41215 0.253535  1.41263 140 140 148
 1.98478 0.116719  1.53005 160 161 166
0.271965 0.997842  1.23897 138 140 152
-0.553374  0.780568   1.12409 134 137 146
-1.34748 0.557361  1.10234 141 145 154
 1.04622 0.593631  1.31985 140 142 155
-0.0383245 -0.0220545    1.38476 139 138 144
0.702886 0.199269  1.33012 142 141 149
 0.449962 0.0103643   1.37041 138 137 143
 1.29751 0.273884  1.39842 140 139 147
0.432422 0.112414  1.36314 141 144 153
-0.710294  0.721245   1.09981 135 137 150
-1.42818 0.438532  1.11945 137 135 146
-0.535656  0.406657    1.1487 133 133 141
-1.52943 0.969498  1.10131 141 147 159
0.181846 0.289967  1.25705 133 133 143
    1.5766 0.00582594    1.55737 150 152 164
  1.18581 0.0119117   1.44958 147 142 148
-1.51088 0.839604  1.07762 129 138 155
-1.28636 0.825745    1.083 149 146 157
 1.70929 0.356703  1.44308 147 148 153
0.733717 0.602458  1.27979 135 135 143
-1.02792 0.589339  1.18241 138 144 156
  -1.037 0.231466  1.19088 141 136 143
 -1.1301 0.515784  1.10699 137 143 155
-1.68163   0.7017  1.08393 122 128 142
-1.34119 0.474203  1.12441 144 128 129
0.529603 0.360188  1.27308 137 137 147
-0.195564  0.133737   1.25642 126 125 133
-1.35846 0.606064  1.09249 129 131 144
0.771879 0.496044  1.29404 129 127 138
-1.42076  0.50755  1.12254 145 129 132
 0.80482 0.521759  1.30209 139 139 149
0.390141 0.586132  1.23098 135 124 128
-0.296358  0.352232   1.18132 145 140 144
-1.23829 0.433071  1.13343 136 136 148
-1.90449  1.00651  1.10538 67 62 59
0.619017 0.162944  1.32922 147 137 145
  2.0679 0.604127  1.49328 155 154 160
-2.0042 1.01236 1.15235 73 68 65
-1.44897 0.388954  1.14419 142 137 144
-0.925377  0.536713   1.05945 146 143 150
-1.05455 0.456729  1.11764 133 137 149
0.0233949  0.622595   1.16984 136 138 153
 1.49309 0.182649  1.44099 142 142 150
 1.21464 0.996823   1.2904 165 164 178
0.997888  1.03743 0.926089 156 150 154
0.122689 0.873743  1.21778 144 134 142
-1.63199 0.518061  1.13324 132 129 138
 1.64207 0.834025  1.44234 145 140 146
   0.988347 -0.00777021      1.4259 153 144 149
 2.27864 0.530667  1.59748 131 123 120
0.192211 0.840894  1.21209 17 16 24
-2.05224  1.09493  1.09404 92 79 73
  1.65203 -0.188204   1.59051 161 153 151
-1.72317 0.903735  1.07796 134 138 150
 1.43098 0.706951  1.38872 151 98 80
  2.6802 -1.79664  2.25131 196 191 187
-0.658338  0.455069   1.13729 124 88 98
1.9704  -1.08  1.847 184 176 173
-1.43151 0.901326  1.07863 134 138 150
-2.26129 0.534298  1.08636 113 104 97
-1.03207  0.63738  1.10618 141 145 157
 1.44469 0.539098  1.40277 142 142 152
-0.266556  0.424085   1.14752 128 128 138
 1.31707 0.263411  1.41116 138 138 146
 1.55832 -2.43385  2.50505 192 187 183
 1.75271 0.593184  1.44975 145 145 155
 1.83839 0.677236  1.45896 144 144 152
  1.9302 0.213187  1.50474 151 151 159
 1.71287 0.154637  1.47997 146 146 156
 1.73053 0.593405  1.29876 146 152 164
 2.11188 0.221018  1.58465 137 116 121
 1.68098 0.453334  1.43289 106 104 115
  1.79312 -0.137108   1.57739 130 128 131
 1.15295 0.744812  1.35148 101 99 112
  1.25624 -0.112647   1.51012 130 126 127
0.618906 0.146992  1.33187 113 102 110
  1.1184 0.760808  1.34462 98 96 109
 1.01572 0.943753  1.34603 115 104 110
 1.57423 0.161126  1.45237 103 103 113
0.550442 0.838047  1.12552 90 94 106
 2.15282 0.127145  1.59686 88 84 85
1.18093  1.1978 1.37932 141 141 149
 -1.5675 0.847777  1.08944 124 133 148
 1.10951 0.797791  1.34022 108 110 125
0.239464 0.627564  1.16813 99 106 122
-1.25785 0.663534  1.10349 142 148 162
-0.0613219   0.662785    1.15202 143 146 161
-0.111246  0.758901   1.15938 139 143 155
-0.809997  0.444838    1.1015 133 136 145
 -1.7915 0.699171  1.12092 127 116 130
-0.319986  0.626273   1.12821 109 111 124
0.694708 0.503765   1.0446 124 106 118
-1.32784 0.937098  1.31853 143 149 161
0.944481  1.58573   1.0134 182 177 171
-2.29578 0.986231  1.09978 227 218 213
-2.89711 0.943571  1.38838 255 251 248
-1.74956 0.798669 0.976701 175 205 231
-1.70063  1.11729   1.0943 123 122 127
-2.27324  0.77237  1.04487 240 233 227
0.242617  1.54528   1.6685 136 135 140
0.568064  1.61174  1.83632 133 131 134
0.209168 0.909201  1.14485 136 140 151
-0.572823   0.71729   1.13136 142 154 176
-1.51188  1.02391  1.16226 141 147 159
 1.23015 0.802275  1.24222 144 148 159
-0.328648  0.658382   1.05738 133 136 151
-1.64774 0.765876  1.13512 148 154 168
-1.88566  0.95082  1.17046 124 128 139
  1.0826 0.598238  1.10001 146 148 161
-1.23546 0.633614  1.05178 144 148 160
-0.459318  0.980268  0.868927 136 138 150
 0.94889 0.526048  1.25789 142 145 160
0.991424 0.518471  1.33043 142 145 160
-1.4354   1.328 1.25379 121 120 125
0.248101 0.845015  1.20035 138 142 153
 1.00734 0.602681  1.26122 140 142 155
 1.02604 0.469133  1.16974 141 147 159
1.39144 0.38175 1.39897 143 145 157
-0.777179   1.00038   1.12307 141 145 156
-0.464625  0.500815   1.05747 129 135 147
1.23827 0.84372 1.37341 139 141 154
1.69479 0.84401 1.18871 147 151 160
0.346137 0.580356  1.30239 135 137 150
1.41187  1.2924 1.48932 147 146 151
 1.74034 0.685879   1.2043 148 152 161
  1.7438 0.691051  1.20536 148 152 161
 2.31189 0.486235   1.6913 154 161 171
-1.30691 0.725862  1.20623 146 152 166
-0.678158  0.533165   1.03867 135 141 153
-1.69159   1.0482   1.1788 139 141 153
 0.90096 0.618046  1.30481 139 143 155
0.973241  1.01109  1.23963 142 145 154
-1.76434 0.865596  1.22573 144 150 164
0.561812 0.456767  1.23401 139 145 157
 1.64419 0.724108  1.46567 151 154 169
-1.11714 0.754374  1.24404 140 146 162
0.371607 0.725948  1.19927 134 140 152
-2.17734 0.751978  1.05244 167 159 157
0.545146 0.569782  1.24506 136 138 151
-1.24929  1.33344  1.21672 118 116 121
1.66838 4.14318 2.81131 194 193 191
 1.62077 0.746468  1.29246 146 148 161
 1.30762 0.314643  1.13888 165 167 179
-0.437173   1.08814   1.12148 152 154 166
-1.63968  1.03215  1.19885 150 154 166
-2.10067  0.85585  1.01703 167 165 170
-0.680597  0.808892   1.09689 139 145 161
1.65734 1.24623 1.49235 164 155 158
-1.93572 0.855926 0.945362 132 124 122
-1.46522 0.954347    1.159 138 144 158
-0.930392  0.506918    1.1255 132 134 147
-0.844184  0.671063  0.896026 136 142 156
 2.31606 0.697339  1.60907 124 123 128
-0.835327   1.22378   1.07542 137 137 139
 -2.0766 0.819128  1.02767 174 187 206
-1.30981 0.825847   1.0758 147 133 146
-1.16932 0.504519  1.06825 136 142 154
-0.0429523   0.599472    1.12892 132 136 148
-1.00964 0.969341  1.22515 144 141 148
0.306632 0.777399  1.27865 135 141 157
-1.82909 0.845172  1.01511 120 114 116
-2.07889 0.861294   1.0618 129 123 125
 1.62716 0.323842  1.15754 153 148 155
-1.79132  1.14241  1.24541 141 134 142
-0.769169  0.629401   1.01601 145 151 165
-1.11914  0.76885  1.03879 152 151 159
-1.87302  1.18282   1.2797 142 136 136
 1.49752 0.389769  1.02953 140 131 136
-0.463798  0.568124   1.10629 147 141 151
-0.721737  0.379337   1.07538 137 141 153
0.661581 0.835129  1.23354 140 144 156
0.537362 0.593736  1.29366 151 141 152
-1.12598 0.501659   1.0444 128 134 148
-2.05358 0.899393  1.24627 30 30 32
-2.4508 1.12669 1.47202 128 123 117
0.0060065  0.787404   1.11924 49 51 66
0.00649525   0.788249    1.11972 49 51 66
-0.984323  0.934082   1.10578 146 145 153
-0.647328  0.416195   1.15736 138 136 147
0.493302 0.606628   1.2636 150 144 158
-1.13304 0.656127  1.17919 137 143 157
0.514615  1.31557  1.38545 149 137 141
  1.0717 0.640888  1.30004 22 24 36
-1.33673 0.610046  1.09873 23 26 35
 1.21701 0.893385   1.2827 59 58 74
-1.56812 0.514211  1.02637 46 56 66
 1.65147 0.795689  1.09025 151 149 150
0.421315  0.89748    1.182 20 20 30
 1.74584 0.510655  1.18218 124 123 128
-1.34654  0.84607 0.848486 134 136 148
 2.32544 0.710966  1.58652 179 175 174
 2.22383 0.649329  1.50795 176 171 168
 1.55098 0.262295  1.06482 166 162 159
 1.56196 0.216531  1.06986 200 195 191
-2.04453 0.711309  1.16069 103 93 91
-1.14248 0.492011  1.13454 129 135 149
 1.42582 0.735141  1.21344 147 151 162
1.52945 1.02048  1.3794 144 147 156
0.011042  0.65463  1.15572 127 133 147
 1.71285 0.419803   1.5105 150 154 166
-1.84442 0.655145  1.17735 120 126 138
 1.73801 0.585941  1.30233 146 152 164
-1.62955   1.3345 0.886802 15 14 12
-1.71398 0.617854  1.17081 127 133 145
-1.77372 0.747585  1.12678 124 130 142
-1.18508  1.16167  1.17837 117 94 100
-1.53673 0.908458  1.11991 118 127 142
  1.0922 0.285277  1.02499 121 124 133
-0.886966   1.27536   1.14666 127 101 104
0.993318 0.292413  1.04484 150 114 116
1.76363 0.59222 1.24218 118 122 133
 1.52693 0.870953  1.33707 136 90 93
0.491424 0.579389  1.28663 123 96 111
0.851824  0.87214  1.23553 106 110 122
-1.58587  1.18145  1.14838 105 105 113
 1.67725 0.808902  1.36762 128 118 129
0.568307 0.822335   1.1633 80 84 95
 1.64089 0.899587  1.15586 121 111 119
0.559942  1.14486  1.24971 108 111 120
0.850407  1.20646  1.33367 124 111 120
0.411062   1.1342  1.21116 139 92 84
-0.385963   1.17166   1.10215 121 80 84
 1.63171 0.935333  1.15827 120 108 110
-0.952276     0.925   1.08921 116 102 115
0.0769362   1.00819   1.21414 125 105 114
  1.65549 -0.062947   1.31189 179 174 170
 1.69146 0.791715  1.38029 127 115 129
-1.01875 0.947504  1.08945 131 95 99
0.141791  1.12481  1.25281 99 101 113
  1.0335 0.799041  1.26411 101 104 119
0.907636  1.09948  1.29606 149 93 78
-0.0531314   0.744073    1.17483 9 11 23
0.0911902  0.785481  0.954676 130 102 114
 1.29374 0.836343  1.29693 54 58 69
-0.676103  0.618494   1.09483 97 104 120
-0.934811   1.31263   1.19991 128 94 93
1.73845 0.47148 1.45267 106 112 126
0.693318 0.966106  1.21723 51 55 66
 1.81471 0.524297  1.42981 99 46 72
-0.71712  1.12477  1.14199 124 95 100
0.473777 0.725442  1.19853 35 41 55
1.66633 1.09465 1.41994 5 5 13
 1.49769 0.384129  1.47604 12 12 22
0.712008  1.21123  1.30949 0 0 9
0.495883 0.566677  1.24598 126 96 108
1.50531 0.83902 1.31602 142 91 74
0.735543  1.01292  1.24118 21 25 36
 1.61268 0.731684  1.34956 16 18 31
 2.05145 0.751958  1.45595 26 29 38
 1.30325 0.658413  1.32016 94 16 42
 1.10901 0.894178  1.27886 2 5 14
1.66878 1.06194 1.40344 1 4 11
0.832359 0.677431  1.25463 0 0 14
0.697067  1.03181 0.893102 85 64 71
 1.28873 0.644655  1.31438 106 31 54
1.88966 1.05103 1.43694 33 33 41
 1.64552 0.724709  1.35815 42 44 57
0.837492 0.787961  1.25833 115 23 44
1.50452 1.37595  1.6116 9 7 10
0.113066  1.10473   1.1158 95 99 111
-1.06198  1.08505  1.01385 130 101 106
-0.150535   1.00469   1.18197 0 2 14
-0.360271   1.13933   1.18539 36 36 46
 1.38346 0.269308  1.28345 116 120 132
-0.164512  0.587631   1.14441 44 47 64
 1.12936 0.765877   1.2873 105 111 127
 1.1262 1.16361 1.35513 62 62 70
0.819064  0.76098   1.2198 124 38 49
-0.551398  0.872218   1.10627 4 6 18
1.11095  1.1059 1.12954 79 76 83
0.793987 0.508971   1.3143 55 58 73
 1.49462 0.457353  1.43078 29 29 39
1.22373 1.25098 1.42115 75 72 79
-0.795434    1.1539   1.14431 9 9 19
-0.904968  0.958276   1.09564 117 35 47
1.32576 0.73057 1.23844 150 94 77
-0.664665  0.601184   0.94328 98 104 120
-0.52252 0.828354  1.10764 14 16 29
-0.821372    1.1908   1.15797 4 4 12
  0.2615 0.664938  1.01183 89 98 115
0.0025687  0.810812   1.17699 49 51 66
0.974678 0.981284  1.16613 20 20 30
-0.0705517   0.864855    1.16783 49 51 66
-0.0392698   0.817536     1.0013 49 51 66
-0.391681   0.61691  0.982434 138 82 67
0.361592  1.40717  1.48288 59 57 62
0.421736 0.898308   1.1823 18 18 28
-0.629791  0.892908   1.10321 18 18 26
 1.87534 0.403448  1.32009 122 117 121
0.205206  1.01012  1.22778 14 11 20
 1.83573 0.753671  1.25812 13 15 27
 0.31588 0.529744  1.04954 129 38 43
0.183881 0.824221  1.19683 7 7 17
-1.15524 0.949904  0.96104 57 57 69
-0.213648  0.658123  0.948058 15 18 27
-0.0331426    1.04921    1.04863 13 10 17
 3.32069 0.984202  3.02372 149 151 163
-1.57126  1.02401  1.07673 139 141 153
-1.83817 0.803938   1.0436 165 190 220
-0.053772   1.09564  0.630979 138 137 143
-1.72192  1.12581   1.2036 141 141 149
-1.69469 0.964241 0.961344 133 126 120
-0.650785  0.730688   1.29532 142 154 176
-1.23631  1.20169   1.1291 137 137 145
0.197833 0.916922  1.08641 139 141 154
-2.22897  1.11654  1.06231 134 120 109
1.07936 0.59071 1.10542 146 148 161
0.296109  0.81956  1.41812 138 142 154
-0.815971  0.488904   1.15203 139 142 157
 1.08247 0.983339  1.04642 146 149 156
-1.55472 0.928257  1.07619 142 148 160
0.295181  1.06571 0.560381 140 138 141
 1.06126 0.690356  1.23774 141 145 157
-0.128928  0.693211   1.15218 129 132 149
-1.26421 0.952317  1.07769 143 147 159
0.219573  1.01629  1.13181 130 132 144
-1.18558 0.671616  1.09903 139 143 155
 -1.1948 0.740146  1.07412 148 154 170
-0.25847 0.370826  1.06822 133 135 147
0.751607 0.983903 0.910387 143 143 153
-0.0250311   0.717669    1.16294 132 135 150
-0.46377 0.798678   1.0984 138 141 156
 -1.5725 0.866717 0.858734 102 94 92
0.583357 0.329096  1.27763 148 143 150
0.162379 0.801114  1.19567 134 136 151
-1.58813 0.854193  1.08725 134 141 157
-0.762113  0.426783   1.10212 133 137 149
 1.15449 0.936859  1.06433 153 153 165
-0.21749 0.720981  1.14203 139 141 154
0.98917 1.10157 1.13384 144 145 150
-1.21449  1.02537  1.07795 141 144 159
1.15209 0.82635 1.34719 144 146 159
 -4.1791 0.437859  2.64713 104 96 93
0.523105 0.569547   1.1876 136 138 151
-0.832473  0.582655   1.06883 141 143 156
-1.25434  0.60199  1.10905 141 147 161
-1.43498 0.550777   1.0576 143 143 151
-0.608853  0.777604   1.09413 138 144 160
-1.18384 0.935496  1.23443 137 143 155
-1.62895  1.07691  1.08861 139 133 137
-2.04274 0.816022  1.35949 137 139 152
-1.69052  0.83546  1.08941 134 138 149
-0.932072  0.899088   1.08416 141 144 159
0.208757 0.648912  1.18413 137 140 155
-1.4734 1.02009 1.06527 143 147 159
 -1.8179 0.363905  1.35601 133 137 148
0.281686  1.07481 0.795431 141 136 140
-1.16745 0.652523  1.07786 131 134 149
 1.47877 0.130086  1.49098 146 150 162
-1.45309 0.496037  1.19383 116 113 120
0.703727  1.06374 0.737446 153 151 154
-1.72299 0.810188 0.947671 184 199 222
-1.30365 0.505497  1.05322 149 102 96
-0.953858   0.56574   1.10363 142 140 151
0.875123  1.08623  1.15628 151 138 145
 1.08816 0.789221  1.14381 148 150 163
-0.15212 0.997085   1.1827 149 151 164
0.917475 0.979719  1.06421 117 117 129
-0.827256  0.640182    1.0915 137 142 161
-1.93455  0.84872  1.05698 123 117 117
 -1.6517 0.747052  1.08772 135 144 159
 1.47269 0.290178  1.11916 155 158 167
 1.52173 0.360732  1.20053 147 149 162
-1.97224 0.850673  1.04825 122 118 119
1.15814 1.01037 1.11423 147 146 151
-1.42788  0.82889  1.16797 148 149 151
0.869171  1.15361 0.957054 191 186 182
-1.82816 0.753856  1.11676 135 141 155
-1.63646 0.770624 0.796473 120 114 116
0.117516 0.938329  1.30674 149 137 147
 -1.5444 0.937321  1.16531 118 127 144
-2.12336 0.747169  1.04619 142 134 132
-0.902731  0.567873   1.10963 147 145 156
-2.06468 0.859063   1.0729 120 116 117
 1.00412  1.00684 0.896431 163 158 164
-0.824325  0.402967   1.02342 135 139 151
-1.31975 0.806482  1.07268 152 150 163
0.0333963  0.210386   1.26981 154 144 153
  1.2254 0.249249 0.878174 174 169 165
-1.69137 0.976035  1.14523 144 139 145
 1.69788 0.939461  1.22722 155 153 156
 1.83341 0.321083  1.47333 151 151 163
0.386232 0.832438   1.0373 153 156 171
 0.09338 0.979494  1.09328 149 139 148
 1.36213 0.685773  1.13289 149 153 165
-1.19971 0.458005   1.1197 104 110 126
-1.81894   0.6811 0.892692 107 99 96
-0.891735  0.918045   1.00199 145 149 161
-1.47039 0.564401  1.02968 143 137 149
 1.45605 0.757689  1.39931 158 130 126
0.0773717  0.354287   1.18756 139 142 157
 1.43042 0.699758  1.37293 155 103 90
0.361293 0.539249  1.20002 125 35 44
-1.55356 0.887598  1.14326 136 142 156
-1.19333 0.824872  1.07416 154 106 102
 1.10281 0.890971  1.12092 61 60 74
-0.857478  0.350478   1.17723 95 101 117
0.00917148   0.922466    1.19543 133 137 148
0.0428071  0.878805   1.19317 137 136 150
-0.928546  0.835416   1.07416 140 146 160
 1.37658 0.596004  1.18623 143 147 159
 1.94252 0.378183  1.46313 154 158 170
-1.48469 0.780508 0.634041 143 138 135
-0.883701  0.811913   1.09543 136 142 156
-1.33198 0.947696  1.11713 121 127 141
1.64555 1.13177  1.0302 186 181 177
0.877892  1.15409  1.01011 156 150 152
 1.5166 0.38329 1.07422 145 126 130
 1.42045 0.680568  1.38224 142 99 92
 1.01933 0.946254  1.34964 115 89 98
 1.49447 0.780898  1.19124 134 131 142
0.967156 0.560815  1.30827 45 48 67
0.722741 0.833764  1.21712 124 106 120
1.02102 1.12526 1.08293 38 37 42
 1.82278 0.616401  1.28172 122 126 137
1.16831 1.03381 1.11771 135 108 113
 1.51283 0.392974  1.19649 131 110 119
0.808358 0.760181   1.1988 124 38 49
0.784541  1.04412 0.881837 55 54 62
 1.14468  1.05394 0.954158 168 148 147
 1.51175 0.486602  1.24268 106 112 126
  0.7257 0.527936  1.18156 38 41 56
0.529163 0.349332  1.14571 135 48 64
0.570818 0.572442  1.18367 102 108 124
1.07163 1.10859 1.06958 85 83 88
0.853761 0.498534  1.09588 59 62 79
0.854197 0.647326  1.31791 0 2 17
0.576868 0.370844  1.16155 133 48 55
 1.07704 0.313589  1.14925 74 78 90
0.609287 0.256555  1.04399 137 67 75
 1.72113 0.595803  1.16105 41 32 35
0.924522 0.593312  1.23124 54 56 71
  0.8948 0.472204  1.20628 63 62 78
 1.17694 0.408001  1.20164 34 34 42
 1.26975 0.442137  1.19407 35 35 43
 1.02053 0.622647  1.21912 17 17 27
0.397683   1.3889  1.04517 36 48 60
-1.26988 0.821197  1.18654 145 108 102
-1.57688 0.912711   1.1411 121 128 144
-2.07116  1.08518 0.946124 64 60 61
-1.76874 0.767155 0.999662 120 128 151
-0.42627 0.487934  1.15179 102 100 113
-0.428872  0.462904   1.15053 96 93 104
-1.82285 0.929377  1.04008 96 89 83
-2.02871 0.739331 0.994135 95 87 84
-0.651862  0.433621   1.11786 127 95 110
-2.44966 0.762497  1.43072 100 90 89
0.402804 0.241239  1.28434 134 89 86
-1.28464 0.488051  1.05595 124 86 83
-1.46087   1.0271  1.17608 30 32 45
-1.61488 0.826995 0.880572 119 121 136
1.38377 1.09567 1.51215 142 142 152
-0.0163167   0.965165   0.987853 135 137 150
-0.168989  0.779432   1.04174 131 139 152
-0.14885 0.729867  1.01937 131 135 146
-1.4087 1.03892 1.07444 137 140 155
-1.32965  1.39489  1.31268 132 126 130
0.703207  1.37661  1.44902 135 134 139
1.08631 1.09241  1.3247 141 141 151
-2.99355   1.0803  1.88538 142 139 134
0.612096  1.28272  1.31414 136 135 141
-0.74323  1.17403  1.08401 154 153 161
1.85603 0.66134 1.58854 155 159 170
-0.777362   1.14607   1.09339 140 142 154
-0.989672   1.36753   1.24672 141 135 139
-1.44066 0.638726  1.28384 133 136 151
-0.341163  0.671591   1.15272 138 140 153
-0.902512  0.436393   1.45095 137 141 153
1.68851 1.32166 1.63065 144 139 143
0.852637 0.781071   1.2504 148 146 151
0.863934 0.667306  1.29206 148 150 163
-0.610718  0.935805   1.05563 120 123 138
-1.4022 1.39302 1.30144 132 131 137
0.0261326  0.760589   1.24946 149 152 169
-1.59027  1.29961  1.26786 141 140 148
-1.08195 0.534495  1.38612 136 142 156
0.0181186   1.03685  0.994806 138 140 152
-0.0572956   0.813096    1.10956 145 151 167
-1.02425 0.879656  1.10371 141 146 165
-0.342646  0.705258   1.13034 115 118 133
-1.39199  1.25824  1.20527 151 151 159
-0.975828  0.886354   1.05814 157 165 178
-1.08711 0.749472  1.19681 138 144 160
-0.0785298   0.833683    1.08968 150 153 170
-0.0911318   0.880552    1.03439 137 143 159
-1.42537 0.969622  1.11402 142 145 162
0.459337   1.3677  1.45017 141 138 145
-0.394635   1.10717   1.00218 141 140 154
-0.0529268   0.868611    1.11433 117 123 145
0.139243   1.4319  1.39326 142 139 146
-1.57676   0.9552  1.18745 150 157 173
-1.78094  1.17447  1.24619 149 143 147
-0.527071   1.51582   1.37778 132 119 126
-1.40347 0.948414  1.10427 149 155 167
0.217265  1.21343  1.13853 133 132 130
0.261627 0.555005  1.42229 138 144 160
1.44416 1.05499 1.23708 151 151 161
-0.576717  0.822887  0.978357 132 138 152
 1.27342 0.438659  1.74983 54 55 75
-1.12643  1.41107  1.28195 140 131 134
-0.694341    0.7633   1.04788 137 144 162
-1.17454  1.38109  1.26519 139 129 130
-1.65677 0.908889  1.24536 122 134 150
-1.79521 0.882168  1.20993 128 135 153
0.382587 0.737509   1.1325 136 142 156
0.464285 0.727515   1.3853 132 135 152
0.800606 0.447873  1.70905 130 133 148
0.341636 0.760681  1.18355 126 132 146
-1.2597 1.37997 1.29179 145 136 137
0.72015 1.41471 1.52157 144 142 147
1.63311 1.26906 1.51154 156 150 150
1.16235 0.72684 1.42753 145 147 160
0.530047  1.08814  1.15351 137 139 151
 1.68387 0.843839  1.44972 159 158 166
-0.90989  1.36808  1.28844 130 96 97
-0.39261  1.12807  1.02136 132 134 146
-1.25991 0.792278  1.17983 142 145 154
0.309164  1.28814  1.23201 44 41 50
-1.8199  1.2983 1.31875 130 130 138
0.853898  1.04665  1.21675 155 152 159
2.03079 1.03693 1.49848 152 145 152
-0.605526   1.07538   0.99408 147 144 153
 1.26257 0.558949  1.56291 24 24 36
0.29656  0.7735 1.08799 98 104 118
0.107622  1.16082  1.09477 92 96 107
  2.066 1.38001 1.78286 135 104 102
 1.33382 0.761187  1.43076 146 150 162
 1.67028 0.848837  1.39235 147 149 161
0.887761  1.08332  1.22818 139 88 71
 1.33282 0.704542  1.47624 89 92 107
0.426981 0.776828  1.20546 93 97 109
0.593884 0.807061  1.23493 71 75 87
0.643984   1.2496  1.30251 85 85 95
1.05252 1.21348 1.33986 80 79 87
  1.4247  2.32513 0.979197 133 128 124
1.03371 1.28039 1.39791 75 75 83
0.501049  1.33857  1.36244 99 80 84
 1.90753 0.740404  1.59303 126 118 131
 1.1096  1.1752 1.32645 0 0 11
 1.3864 1.23153 1.42842 7 6 14
0.918931  1.15146  1.27408 49 0 2
0.834709  1.20334  1.29554 120 100 109
1.28232 1.43821  1.6694 83 6 24
0.954015  1.35259  1.47873 1 0 4
0.938371  1.40724  1.55202 6 1 7
1.21723 1.36947 1.54772 90 21 39
0.989025   1.3774  1.50742 3 0 4
1.73629 1.27125  1.5566 139 113 114
1.11423 1.14903 1.32239 15 13 24
0.421645  0.91356  1.15655 0 0 14
0.939144  1.11605  1.26384 90 12 36
1.57339 1.31391 1.55808 145 93 80
1.38674 1.12293 1.36828 132 103 108
0.708066  1.01598  1.18339 5 4 18
0.569737  1.29352  1.34201 119 85 86
1.02864 1.23669 1.36555 96 96 106
0.77551 1.42637 1.53451 4 2 7
0.0453065  0.771515    1.2057 130 133 148
-0.831083  0.702346    1.1324 137 140 155
0.221834 0.813185  1.16549 127 130 145
