ply
format ascii 1.0
element vertex 672
property float x
property float y
property float z
property uchar red
property uchar green
property uchar blue
end_header
0.0235656  -1.53336 -0.176477 0 255 0
-0.195008  -1.20209 -0.135534 0 255 0
 -1.96909 -0.225742  -0.42795 0 255 0
 -1.28321 -0.687316 -0.344586 0 255 0
-0.326619 -0.138053 -0.117584 0 255 0
-0.239407 -0.545276 -0.247284 0 255 0
-0.191297  -1.05884  -0.24327 0 255 0
 -1.58039  -0.72282 -0.475337 0 255 0
-0.219686 -0.519531 -0.109818 0 255 0
 -2.60981 -0.513421   1.53833 126 133 143
  -1.56924 -0.0515208    1.49955 112 111 116
-2.87852 -0.15148  1.40928 127 123 114
 -2.80116 0.0188946    1.5117 94 92 95
  -1.86501 -0.0180667    1.46335 108 109 113
-0.881979 0.0479643   1.57144 103 104 108
-1.99397 0.157629  1.48233 100 101 105
 -2.07428 -0.117186   1.03004 103 102 108
  1.49856 -0.287093   1.24507 122 120 125
-1.36623 0.119449  1.49441 102 100 103
-0.46601 0.142843   1.5422 103 101 104
 -2.17406 -0.572901   1.43925 143 154 172
 -1.52499 -0.482893   1.56388 121 124 131
  1.01635 -0.414295    1.3672 130 129 134
 -3.75891 0.0617169   1.34816 255 254 252
  1.41023 -0.194709   1.26153 124 118 120
  1.19291 -0.091949   1.31384 121 119 122
 -0.732994 -0.0817052    1.43825 105 104 109
-2.15219 0.335642  1.53468 93 91 94
  1.16084 -0.192849   1.37105 125 124 130
   1.0519 0.0277232   1.42154 121 120 126
  1.19969 -0.454862   1.34789 132 131 136
 -0.245595 0.00962783     1.5201 106 104 109
 0.972582 -0.645304   1.27061 138 138 146
 -2.15991 -0.547264   1.68369 132 136 145
-2.16324 0.298505  1.47854 93 96 103
 -1.94644 -0.208019   1.56981 106 106 106
 -2.01701 -0.136353   1.55525 109 108 114
-2.22414 0.371337  1.70879 102 103 108
 0.921075 -0.658581   1.31368 136 136 144
 -1.46669 -0.215152   1.56989 115 114 119
 -1.59384 -0.316427   1.63238 126 121 127
 -2.32871 -0.338887   1.52142 120 124 133
   1.11166 -0.0348229    1.31189 123 118 122
 0.354031 -0.338099   1.45809 126 125 130
 -2.1334 0.497968  1.59495 80 81 86
  -2.5322 -0.109602   1.52344 111 112 116
 -0.44062 0.0208223   1.62059 116 114 119
 -1.62446 -0.182616   1.59764 114 115 117
-2.62959 -0.15064  1.51797 110 109 114
   1.2696 -0.623458   1.27998 134 132 135
-2.27397 0.142347  1.56389 100 101 105
0.648913 0.203955  1.51922 114 113 118
 0.781062 -0.682708   1.31101 136 136 144
 -2.21052 0.0148662    1.5268 105 106 108
 0.384459 -0.536602   1.43877 129 128 134
  1.30748 -0.178942   1.28426 119 117 122
 0.449643 -0.497691   1.41796 128 129 134
 -2.93132 -0.328024   1.42626 61 55 55
 -2.05086 -0.148384   1.61117 96 97 102
 -2.54835 -0.010971   1.41689 95 96 100
 0.684359 -0.758821   1.32315 135 138 147
-0.034857  0.241803   1.45032 103 103 105
  1.00984 -0.194783   1.38327 125 123 126
 -1.62354 -0.298355   1.62621 126 121 125
-2.56055 0.326562  1.48351 79 77 82
 -2.4054 0.323566  1.50672 82 81 87
  -1.03593 -0.0178162    1.62516 113 109 110
  -2.68462 -0.0866774    1.50426 92 95 100
-1.54671 0.158944  1.52573 107 103 100
0.0483794 -0.706151   1.41289 133 132 138
 -2.06176 -0.231303   1.59229 124 125 130
 4.76978 0.605149  1.84339 184 180 179
-1.25333 0.398499  1.76664 111 112 114
 -2.15114 -0.354234   1.55461 123 126 133
 -1.90312 -0.182591  0.874017 133 129 130
-2.83086 0.153557  1.37118 41 41 43
 4.35489 0.499283  1.76536 186 182 179
0.871288  0.19632  1.28113 143 139 138
 0.522076 0.0799616   1.42768 128 116 116
-1.26281 0.268449  1.39673 88 87 92
 -2.36315 0.0933809   1.07538 75 69 69
 -2.99647 0.0608723   1.28642 53 48 44
 -2.53295 -0.557757    1.3753 135 130 134
-1.68797 0.395574  1.66366 99 100 105
 -1.17928 -0.735089   1.48247 138 132 142
 -0.40847 -0.449353   1.52163 122 116 120
  1.01494 -0.241958   1.35257 123 122 127
 -2.57196 -0.484998   1.44643 143 134 137
-0.864301 -0.356575   1.57968 119 118 124
-1.02573 0.675641  1.73464 83 76 83
  1.31349 -0.777988   1.11067 145 143 146
 0.940411 0.0341481   1.33338 124 122 125
 -3.36137 -0.508452   1.14951 128 127 125
0.0218678  0.263594   1.44239 114 108 110
 -1.49168 -0.259647   1.61945 125 115 114
-0.353205 -0.510328    1.5226 122 116 120
 -1.47575 -0.415755    1.6575 124 122 127
 -1.45936 -0.333939   1.60221 118 77 75
 -2.9924 0.313487  1.71836 98 99 104
 1.56626 0.483868  1.52987 134 129 123
-2.85217 0.350209  1.45058 49 48 53
  1.46132 -0.796571   1.00089 171 169 170
 1.20944 -0.30226  1.26803 124 123 128
  0.818356 -0.0874696    1.35887 120 119 125
  1.04853 -0.166845   1.39397 90 87 94
  1.05137 -0.201437   1.38402 79 79 87
 1.43212 0.126939  1.22055 91 85 85
-0.118613  0.459491   1.20942 178 169 164
 1.56834 -1.08508  1.79716 189 188 186
-2.66508 0.413216  1.33274 123 118 115
  -3.4526 -0.167618   1.30959 231 226 220
-1.09424 0.244994  1.52597 94 95 99
-0.199822 -0.414168   1.53692 120 119 124
-0.292504  0.127842   1.52493 107 105 106
 -3.24895 -0.166549   1.31999 135 128 120
-3.73606 -0.18779  1.28732 145 144 140
 -2.94977 -0.485606   1.42224 120 144 170
 -2.33183 -0.555397   1.49345 145 162 190
 0.784705 -0.155922   1.43775 126 125 130
 -0.638925 -0.0725788    1.44933 107 105 108
  -1.20983 0.00741287    1.49893 104 105 109
-0.0395052  0.0863957    1.53154 111 108 115
 0.279314 -0.417359   1.46687 123 122 128
 -1.2305 0.138019  1.44131 99 98 103
 -3.3063 0.222029  1.23388 91 78 72
  0.07847 -0.511015   1.43428 127 126 132
-1.78236  0.11123  1.49593 106 107 111
  1.08552 0.0303693   1.46131 121 120 126
-1.92971 0.164184  1.48358 97 97 105
-2.07241 -0.26765  1.57576 119 120 125
-1.20721 0.429762  1.52802 85 84 90
-1.08885 0.456966  1.53486 72 75 82
-1.68107   0.1555  1.60962 105 105 107
 -1.38231 -0.541662   1.49949 120 124 133
 -0.737941 -0.0874408    1.47907 105 104 109
 0.235989 -0.171078   1.42439 123 122 128
-0.704715  0.156492   1.52551 95 93 96
  1.24789 -0.683601   1.27726 138 138 146
 1.56193 0.145997  1.36913 120 116 117
0.428797 0.111575  1.49359 112 110 113
 -0.8499 0.137755  1.51134 102 100 103
   1.0285 -0.712463   1.36548 137 137 147
-2.53429 0.189338  1.42137 80 81 86
-0.786283  0.232441   1.51338 99 98 103
 -3.80658 -0.336559   1.30577 128 124 121
 0.318656 -0.139527   1.47595 119 120 124
0.0833742 -0.534825   1.47364 137 136 144
-2.37187 0.403127  1.45418 78 77 85
-0.958663  0.454925   1.54265 77 78 83
0.825535 0.411709  1.53772 121 111 110
-0.294376 -0.163549   1.51795 112 111 116
-0.752559 -0.742212   1.46491 125 129 141
-2.15484 0.452972  1.43445 86 85 90
  1.64864 -0.564818    1.3057 149 147 148
 0.535401 -0.807707   1.41026 144 138 140
-3.43258 0.348653  1.27842 65 61 60
-2.60546 -0.23712  1.51743 108 111 120
 0.498258 -0.574389   1.42533 134 134 142
 0.867056 -0.928356   1.36675 137 137 145
2.41376 2.01714 1.34466 182 178 179
-2.94822 0.364751  1.41995 21 22 24
 -1.73924 -0.242661   1.54943 116 106 107
  1.03054 -0.806912   1.34849 145 145 153
-1.30548 0.304158  1.53623 98 99 104
-0.0163219   0.432218    1.53079 107 101 101
  0.463704 -0.0483289     1.4415 126 120 124
 0.301896 -0.825937   1.42847 137 140 149
    1.709 -0.254896   1.32189 133 129 128
  1.64448 -0.467197   1.30535 128 126 127
  1.61353 -0.541014   1.29824 139 137 138
 -3.33374 -0.214286   1.35431 82 75 69
 -0.39113 -0.494237   1.49355 134 125 130
0.287674  2.32528  1.56879 184 180 179
-2.04573  0.10557  1.45185 106 106 114
-3.75166 0.190813  1.25078 131 126 123
 -3.35846 -0.999116   1.35191 128 124 125
  1.38548 -0.755225   1.23937 141 140 146
0.883429 0.441811   1.5033 129 127 128
 0.467182 -0.384271   1.45054 86 87 92
-2.64556 0.292105  1.42268 56 57 61
 1.24686 0.356313  1.48575 105 103 104
 0.397478 -0.486066   1.44184 92 91 96
1.79397 1.52428 1.44583 178 172 172
 0.996287 -0.159363   1.42798 104 75 77
 -3.76094 -0.549128   1.44888 141 158 184
  -3.3136 -0.181746  0.886468 176 172 171
-1.12272 0.375718  1.82478 100 104 107
 -1.0867 0.159475  1.44136 96 97 102
 -2.09547 -0.184396   1.55941 114 115 120
 -3.30097 0.0965463  0.905211 180 165 160
-0.972313  0.244716   1.43482 93 92 98
-0.853155 -0.102609   1.49596 107 106 111
-0.433464 0.0204215   1.42929 109 107 110
-1.94096 0.350688  1.45196 80 81 86
  1.41734 0.0210989   1.28294 130 128 131
-1.99285 -0.32972  1.40942 122 122 130
0.0895991  0.130442   1.42614 110 110 112
  1.59581 -0.204101   1.33372 129 127 130
  -3.1173 -0.154439   1.15448 114 109 103
 -2.23805 -0.277501   1.58313 119 119 127
  1.0442 0.255863  1.44635 119 117 122
-2.28528 0.429111   1.4632 80 83 90
   1.39775 -0.0851079    1.38116 125 124 130
-0.196867  0.247727   1.84035 117 116 114
 -4.04704 -0.177998   1.54978 190 185 181
 -1.85219 -0.157992   1.50373 120 121 126
 -2.31156 -0.187977   1.53841 119 120 125
 1.07307 0.199265  1.43636 120 115 121
 0.421892 0.0691525   1.43754 112 110 113
0.697459 0.404431   1.4708 117 116 121
 -2.01712 -0.438651   1.33938 123 126 133
  1.67015 0.0480046   1.40998 122 118 119
 0.166743 -0.458016   1.44804 143 143 145
-2.93801 0.126712  1.19939 53 49 46
-1.13176 0.243842    1.444 94 94 102
-0.738544  -0.36577   1.60662 125 126 130
  1.22251 -0.570984   1.26651 139 133 135
-2.34045 0.290067  1.45291 84 82 85
 -1.97833 -0.242365   1.57014 116 115 120
-0.098983  -0.40713   1.47034 129 129 137
-1.64596 0.413586  1.44946 82 87 93
 -2.42996 -0.108898   1.54329 112 106 106
 1.22527 -0.10255  1.41378 133 133 135
-1.51245 0.272442  1.44244 85 89 100
   -1.06044 -0.00619399     1.63475 116 110 110
 -1.37762 -0.148702   1.57586 130 123 130
  -3.38882 -0.0588725   0.925313 135 134 132
  0.38085 -0.409852   1.44587 130 129 135
-2.58712 0.426605  1.36232 71 70 75
-0.0390643   0.099917    1.43128 109 108 114
   -2.89601 -0.00158948     1.16725 73 66 60
-0.627347  0.480657   1.46715 87 86 91
   1.50526 -0.0763817    1.38808 135 128 122
-2.33581 0.337487  1.48246 101 96 92
-1.18678  0.32352  1.43486 80 71 74
 0.463236 0.0667693   1.43692 128 112 115
0.0911101  0.293999   1.45428 115 109 113
 1.36095 0.284078  1.45006 135 130 134
-2.65917 0.346393  1.44502 55 58 63
-2.17252  0.17198  1.46369 115 104 108
  1.35584 -0.172369   1.30957 135 133 134
-0.824272 -0.471556   1.48466 124 122 127
-2.86355 0.489071  1.45089 47 46 51
 0.745268 -0.232625   1.41276 128 127 133
-1.27506 0.204908  1.43705 94 97 102
  1.14139 -0.422296    1.0943 144 146 145
   1.50195 -0.0793503    1.23657 140 135 131
-2.82767 0.321509  1.45279 45 46 50
 1.00114 0.220439  1.43392 128 118 119
 0.67597 0.342775  1.45434 51 50 56
 -1.87858 0.0146042   1.46512 115 116 120
-0.968248 -0.124206   1.45948 116 110 112
  1.08099 -0.103957   1.39412 127 126 132
-2.57849 0.050453  1.51079 106 107 111
  1.18069 -0.390717   1.22437 125 124 129
-1.35801 0.465659   1.7793 89 90 94
 0.814158 -0.257267   1.40957 94 93 98
   1.7437 -0.969823   1.38408 181 177 176
   1.39959 -0.0724608    1.25445 79 78 83
  1.59195 -0.614538  0.539234 150 145 142
-0.185284 -0.070165   1.44305 0 0 2
-0.198449 -0.150582   1.71415 100 100 102
 0.398127 -0.233149   1.57658 91 92 96
0.0936485 -0.498215   1.43753 137 134 141
 -2.34714 -0.262259   1.54306 116 119 128
 0.209533 -0.512165   1.46717 131 130 138
-0.0375144  -0.406835    1.51968 133 131 136
-2.37297 -0.37767  1.52403 120 124 133
 -2.06057 -0.174991   1.57922 103 104 109
 0.814263 -0.496524    1.3639 140 128 130
 -1.92537 -0.286232   1.56347 124 120 119
   0.2918 -0.620572   1.41558 143 132 138
 -2.36176 -0.112029   1.54575 113 109 108
 -1.59158 -0.276612   1.62911 107 104 113
 0.375181 -0.492095   1.42665 132 131 137
 -1.88339 -0.306702   1.72715 129 123 125
 0.462563 -0.641021   1.39658 130 130 138
 -1.88913 -0.227364   1.61174 119 119 111
 -1.76085 -0.527407   1.54364 132 136 145
 -1.47832 -0.350519   1.54701 128 116 120
-0.823399 -0.331199   1.62359 79 78 84
 0.178206 -0.475431     1.477 57 54 61
-3.11195 -0.43166  1.47131 66 58 55
  0.44655 -0.446223   1.43523 92 91 97
0.346146 0.952908  1.19784 183 178 175
 -1.66981 -0.788066   1.47812 135 138 153
  -2.27063 -0.0746558      1.365 105 108 113
 -3.63141 -0.541866   1.41545 157 186 218
 -1.35837 -0.797749   1.44963 126 133 143
-1.2384 -0.7702 1.26621 126 133 143
-0.250783 -0.810067    1.4575 127 130 139
 -1.08451 -0.759566   1.48604 122 128 140
  -1.2301 -0.599291   1.52151 120 124 135
-0.0457476  0.0861108    1.52054 111 108 115
 -2.04735 -0.255139   1.55524 119 120 125
 -2.42838 -0.513495   1.40852 162 183 212
  1.17072 -0.216087   1.33567 124 123 128
  -1.778 0.255479  1.45003 98 99 104
 0.221121 -0.562979   1.48388 127 127 135
 -1.95221 -0.638787   1.50912 130 139 154
  1.12618 -0.224147   1.32811 125 124 130
 -2.12564 -0.587145   1.50965 134 147 166
 -2.82008 0.0279845   1.34551 58 50 47
  -3.53091 -0.0794398    1.21218 141 132 127
  1.31206 -0.608999   1.32072 134 132 135
 -3.63941 -0.243951   1.23765 157 155 156
-1.94067  0.19227  1.45378 91 92 97
 -3.05905 -0.741585   1.50199 116 123 133
 -1.60572 -0.478379   1.51559 126 129 136
-2.24263 -0.49554  1.05128 131 139 152
  1.11532 -0.180391   1.34513 123 122 127
   1.12521 -0.0698186    1.29999 120 118 121
 -1.55598 -0.336085   1.54353 122 116 120
-0.287864 -0.733032   1.43755 132 135 142
 -2.46699 -0.355341   1.49611 112 119 129
 -2.61629 -0.482601   1.39677 132 136 148
  1.39561 -0.701902    1.1921 130 128 131
0.600461 0.224191  1.32638 135 131 132
0.383535 0.208999  1.54261 111 109 114
-2.31601   -0.677  1.40596 130 133 142
-1.86473 0.172983  1.49894 90 91 95
 -1.51236 -0.712507   1.45003 129 135 147
 -0.864067 -0.0389448    1.58993 101 101 103
 -1.74202 -0.802149   1.42729 129 133 142
 -3.16331 -0.155337   1.05416 163 160 155
-0.403283  0.263047   1.54031 104 104 106
 1.11089 0.142109  1.18368 140 136 135
-2.45378 0.297766  1.39742 79 77 82
-0.107551 0.0412505    1.4613 106 105 111
-0.968719 -0.114282   1.59438 125 124 129
-0.0354812  -0.659483    1.45067 130 125 129
-2.58513 0.357221   1.4335 69 67 70
 -1.32205 -0.570213    1.5177 124 127 134
 0.973892 -0.909911   1.39018 144 147 156
-2.11989 0.428497  1.49727 80 81 86
-2.14971 -0.21473  1.66609 120 121 126
-0.505789  0.184592   1.47002 110 108 111
 0.478809 -0.434504   1.43898 126 125 130
-1.00692 -0.12005  1.60386 124 123 128
  1.31866 -0.379377   1.37779 131 131 133
-2.04709 0.277747  1.49416 95 96 101
  -1.8884 -0.494801   1.53612 128 126 131
 -2.54416 -0.226532   1.56557 118 121 128
-0.835633  0.246579   1.58215 98 97 102
 0.763551 -0.714378   1.32281 139 142 149
 0.836461 -0.650347   1.32702 136 137 142
-0.815473 -0.116903   1.50876 110 109 114
   -1.34394 -0.00866522     1.61708 115 116 118
 -0.4225 0.286527  1.54888 96 96 98
 -1.29716 -0.689926   1.49151 125 129 140
-0.057641 -0.437353   1.51587 129 130 135
-1.02634 0.444059  1.54023 78 79 83
 -1.17336 -0.603117   1.52098 125 129 140
 -2.26768 -0.331145   1.65065 125 128 135
-0.890615 -0.749099   1.46958 123 127 139
-1.55741  0.09934  1.33166 103 102 107
 0.914136 -0.621709   1.29397 135 134 142
 0.442643 -0.537062    1.4301 134 135 140
 -1.81747 -0.596447   1.50204 128 132 144
-1.03466 0.395425  1.54854 93 93 95
-0.95777 0.353648  1.57659 98 97 102
-0.304419 0.0321621   1.54482 120 103 109
-1.93755 0.187483  1.57608 100 101 106
0.0868502  0.278502    1.4311 111 107 106
-1.87824 0.458622   1.4524 92 77 82
 -1.23227 -0.355399   1.44731 124 112 112
-1.64416 -0.40597  1.56812 124 119 126
 -3.21556 -0.309036   1.41319 61 55 55
 1.24284 0.118504  1.22239 136 132 131
 -3.82691 -0.182527   1.38515 119 116 111
 -1.67432 -0.365137    1.5802 126 116 124
 -2.87208 -0.302621   1.40132 57 52 48
 -2.57486 -0.296079   1.52346 114 118 127
-0.153322 -0.743146    1.4217 134 138 150
  1.35235 -0.405027   1.27646 142 136 140
-1.02779 0.342648  1.57176 92 90 95
  1.60092 -0.371208   1.47833 138 132 136
  1.08354 -0.594317    1.3083 142 132 131
 0.293304 -0.174456   1.46814 118 117 123
-0.391144  0.119522    1.4996 111 106 103
 -1.88204 -0.241007   1.71798 121 112 115
  1.14897 -0.635714   1.28117 144 138 140
  -1.87985 0.00464956    1.38647 109 109 117
 0.339059 -0.181524   1.46071 126 125 131
 0.784061 -0.637615   1.40365 131 134 139
 -2.38711 -0.273189   1.44928 114 118 127
 0.559469 -0.768975   1.35742 148 142 144
  1.08141 -0.182144   1.44179 130 128 133
 -1.82493 -0.526448   1.53395 128 121 128
  1.19909 -0.553839   1.29166 144 135 136
 -1.91435 -0.562897   1.48029 130 128 139
 0.553684 0.0891495   1.49798 122 110 110
 -1.99239 0.0218144   1.28171 95 99 108
-0.462511  0.308815   1.47203 100 94 96
 -2.51106 -0.535312   1.42196 137 134 143
-0.841384  0.474552   1.43519 96 77 70
 -2.53199 -0.297426    1.5175 119 123 134
0.482174 -0.59252  1.40895 127 130 137
-0.82308  0.47299   1.4643 94 66 63
  1.0132 -0.15919  1.34898 123 122 128
-1.36711 0.450293   1.5353 87 81 83
 0.433321 -0.468742   1.46324 139 138 143
 -2.81318 -0.456677    1.5176 125 119 121
  -2.31528 -0.0120497    1.51988 119 119 121
 -1.25155 -0.681906   1.52881 134 128 138
 -2.59596 -0.179823   1.53497 107 110 117
-0.951512 -0.475213   1.55373 122 121 126
  -2.55416 -0.0501795    1.30843 58 56 59
 1.65807 0.704734  1.09602 183 179 176
 -2.64473 0.0171093   1.49843 97 98 103
-0.482253  0.036879   1.56623 19 17 22
  1.46013 -0.816141   1.27654 145 145 147
  5.22843 -0.996494   2.00254 188 184 183
  0.44087 -0.431239   1.42383 95 94 100
-2.68859 0.174763  1.56609 94 95 99
 -1.16645 -0.604202   1.60557 35 38 47
-1.41031 0.370195  1.46983 87 88 92
 -1.19716 -0.174906   1.74685 113 113 115
-1.11313 0.115651   1.4846 9 9 11
-3.73345 0.131577  1.18693 124 123 119
 0.255703 -0.135242   1.43484 121 119 124
  2.37931 -0.326311   1.40868 176 172 169
 -2.68278 -0.140873   1.52854 107 108 112
 0.436807 -0.239449    1.4301 120 119 124
  1.45683 -0.487989   1.26242 130 129 134
-0.710964  -0.66506   1.60192 120 123 130
0.837885 0.326336  1.27607 162 157 153
  1.37285 -0.807963   1.18053 152 150 153
  1.17145 -0.472553    1.3438 128 129 133
   1.9039 -0.213953   1.08846 176 172 169
  1.80307 0.0835374   1.91636 117 115 118
1.63214  0.1803 1.23188 160 155 149
 1.74794 0.500738  1.70586 144 140 137
  1.32293 -0.799651   1.18472 122 123 127
 0.496892 0.0149031    1.4304 98 73 76
  1.29067 -0.616782   1.25745 116 92 90
  1.15647 0.0745096   1.23663 92 83 84
  1.31383 -0.678782   1.23786 114 103 109
 1.24393 0.108681  1.19103 92 87 84
  1.20484 0.0974611   1.16628 92 87 84
 4.10444 0.400132  1.70302 146 142 141
0.966568 -0.75891  1.25155 113 104 107
 0.998162 0.0620706   1.28074 35 33 38
  1.19504 -0.570362   1.28947 109 87 89
0.615773 0.224771  1.29987 105 96 99
  1.15717 -0.650381   1.26341 104 87 93
 0.87323 0.135351  1.28863 56 54 57
 1.00302 0.895624  1.66709 170 165 161
   1.0478 -0.270385   1.30683 74 73 79
 0.394981 -0.464136   1.49504 88 87 93
0.455774 0.275352  1.32362 110 108 109
 1.35882 0.717734  1.67412 159 155 152
   1.2745 -0.654703   1.25475 109 90 94
 0.680655 -0.691283   1.32846 81 84 91
  1.33276 0.0786581   1.20856 71 66 63
0.410244 -0.57037  1.40581 94 94 102
 0.695725 -0.671043   1.25885 94 97 104
  1.15531 -0.620802   1.27476 123 96 101
 0.965004 -0.746662   1.10549 89 92 99
 0.678995 -0.221372   1.41231 89 80 85
  1.38118 0.0323787   1.25088 92 82 81
0.930382 0.136988  1.30386 32 30 33
  1.43057 -0.396466   1.28578 94 82 86
 -6.2194 0.439123  2.51636 255 253 252
 -3.80252 -0.312182   1.38903 255 254 255
 -3.64048 -0.558438   1.42157 181 208 238
-0.386093 -0.958005   1.40463 127 131 140
0.879891 -0.81589  1.27991 136 136 146
-0.896599 0.0144051   1.54779 100 98 101
-0.0749368  -0.937008    1.39268 132 135 144
-0.538622 0.0700651   1.50998 96 94 97
  -2.1658 -0.806565   1.50999 133 145 167
 -2.51028 0.0555856   1.54258 100 101 106
-2.35677 -0.25995  1.48834 122 122 132
-0.854905 0.0590626   1.60477 98 96 99
 0.110902 -0.647818   1.45049 128 127 133
 -2.54961 -0.415554   1.51525 122 126 137
  1.23506 -0.755616   1.21707 132 135 142
-1.48964 -0.19659  1.60389 113 111 116
  1.24439 -0.631219   1.25974 129 124 130
-0.906869  -1.05589   1.35556 124 128 139
  0.64912 -0.890022   1.30301 136 137 142
-0.649029  -1.11679   1.28893 124 127 136
 -2.31525 -0.820913   1.34469 132 139 149
 0.387444 -0.530325   1.44063 124 123 128
 -2.45078 -0.474844   1.49888 118 125 135
  0.73124 -0.763752   1.34179 133 133 141
  0.37669 -0.600559   1.40753 132 127 131
 0.629247 -0.473378   1.36892 125 126 131
  1.11532 -0.180391   1.34513 123 122 127
  1.14595 -0.547287   1.29285 128 123 127
  1.15318 -0.616209   1.31311 135 126 127
  -2.36414 -0.0272905     1.5328 108 107 112
 -1.42661 -0.427776   1.55404 123 123 131
 0.649675 -0.707135   1.34198 129 132 139
-2.34513 0.213136  1.59278 106 105 110
 0.906145 -0.751068    1.2125 161 160 168
-0.566082  -0.34506   1.55603 119 114 120
 2.97537 0.951657  1.34184 181 178 173
  -1.6418 -0.607172   1.53913 140 144 155
-0.0433142  -0.854375    1.10081 146 136 134
  1.04499 -0.611837   1.30405 143 144 149
 -1.43705 -0.235777   1.58153 131 120 124
  1.22417 -0.426596   1.28448 133 129 130
-0.985441 0.0479733   1.69101 110 109 114
0.648964  -1.0332  1.24183 139 141 153
 -1.7898 0.113742  1.61313 113 114 118
-0.778715   0.12851   1.53194 91 86 92
  -2.58158 -0.0812352    1.52405 104 107 112
-0.0920207  -0.394429    1.55445 136 135 141
-2.58694  0.63451    2.048 84 85 89
 -1.51001 -0.140901   1.57828 114 110 111
-2.15985 0.147273  1.54146 107 102 106
-2.52097 0.299961  1.80454 100 100 102
 -2.96893 -0.162618   1.48125 60 54 56
-1.63116 0.518822  1.91217 92 93 97
 1.20947 -1.00522  1.05992 143 142 147
  1.25889 -0.661576   1.24654 142 128 128
   -2.3782 -0.0620782    1.55008 119 110 113
-0.0485211  -0.704082    1.42117 135 131 130
  1.33268 -0.546301   1.23855 140 126 126
   1.3368 -0.674999   1.22153 146 134 138
-0.681798 -0.782693   1.49113 124 128 140
-2.31723 0.191181  1.58767 114 108 112
 0.760755 -0.682229   1.32519 132 135 142
  -4.10328 -0.0688811     1.8221 105 98 90
 0.401156 -0.627761   1.42799 136 135 143
  1.16992 -0.396436   1.26446 134 132 135
 0.205499 -0.674189   1.45988 134 134 136
  -1.65369 -0.0779929    1.67204 126 117 120
 -2.79954 -0.763848   1.52686 122 132 144
3.40375  0.9275 1.59828 181 178 173
  1.55353 -0.755075   1.23217 159 155 152
0.984995 -0.65755  1.32772 60 58 69
 -1.91815 -0.240415   1.59795 112 57 50
  1.46625 -0.313118   1.24488 144 139 135
-0.399922 -0.842596   1.41632 22 23 28
-1.76995 -1.52142  1.42393 124 121 116
-0.195944 -0.636939    1.4165 124 128 137
 -2.53739 -0.138886    1.6058 114 113 119
 -1.89692 -0.270815   1.63054 120 121 126
  1.19423 -0.935091   1.18611 139 142 151
  1.56429 -0.425284   1.28513 140 135 131
 1.24717 -1.05119  1.09825 145 143 144
 0.298035 -0.582547   1.41757 100 75 78
0.406171 -0.61038  1.40635 84 83 91
  1.6197 0.222088  1.51004 167 162 159
 0.591077 -0.848895   1.33625 127 84 77
 0.599399 -0.909758   1.29339 126 81 78
 0.425578 0.0370821   1.61434 103 83 84
 0.430974 -0.445071   1.47219 83 84 88
 0.943622 -0.263031   1.32283 84 83 88
  1.27135 -0.669321   1.24299 109 90 94
   1.3455 -0.889042   1.19246 113 106 113
 2.68871 0.833731    1.245 132 127 123
 0.775404 -0.984326   1.26229 35 37 49
 0.552125 -0.848415  0.878186 133 124 129
 1.11805 -1.03215  1.18534 82 51 67
 -2.22588 -0.470398   1.53986 121 125 136
  -3.66758 -0.0137175     1.3683 148 148 148
 -3.43248 -0.918828   1.48743 131 123 121
 -0.894144 -0.0362848    1.64541 107 106 111
 0.864253 -0.727863   1.33326 139 139 149
-2.20012 0.260314  1.60963 99 100 105
 -1.2071 0.367913  1.68601 90 91 96
   1.3029 -0.559331   1.29047 140 134 138
 -2.64615 -0.820287   1.53773 120 129 144
  -2.35669 -0.0304161    1.52207 108 107 112
 -2.77854 -0.807443   1.66966 131 143 159
-0.701652 -0.774018   1.51099 133 133 145
-0.739992 -0.754923   1.50562 130 130 142
 -1.13697 -0.456713   1.50594 134 137 146
-1.20195 0.249454  1.71548 103 103 105
 -2.31412 -0.310444   1.53758 120 124 133
 -2.06047 -0.262549    1.5468 120 121 126
-0.549425 -0.360594   1.56245 117 116 121
 0.869155 -0.688454   1.29805 148 148 156
 0.919742 -0.658502   1.32871 142 141 149
0.0617149 -0.565046   1.46087 135 135 143
 -2.44664 -0.405145   1.54809 130 134 143
-0.411218 -0.557204   1.49777 120 119 127
 -2.42557 -0.341218   1.54367 126 131 137
  1.13994 -0.684875   1.23821 158 155 162
 -2.65989 -0.389054   1.53589 129 119 127
-1.59964 0.173176  1.61155 114 107 101
 -2.09802 -0.217412   1.54188 122 125 130
 -1.84755 -0.602499   1.52515 134 137 146
 -2.05505 0.0424776   1.57758 114 114 122
-1.72551 0.334446  1.64803 93 93 101
  1.08822 -0.589454   1.31216 142 132 131
   0.4389 -0.127238   1.67213 125 124 132
-0.830184 -0.760912   1.51049 131 133 145
 -2.36012 0.0310256   1.56773 123 113 112
-3.56783 0.256362  1.35171 80 78 79
-1.84888 -0.28452  1.55061 127 118 123
  0.67922 -0.679423   1.34159 139 142 147
-1.25842 0.120077  1.01506 90 88 93
 -1.88492 -0.620518   1.53094 134 133 141
  1.91068 -0.029747   1.82456 130 116 115
  -2.62209 -0.0375236    1.53416 81 84 91
  1.19335 -0.634864   1.24544 142 127 130
 0.876891 -0.663487   1.31905 53 52 60
 -2.31231 0.0719426    1.5343 119 109 107
  -1.43917 -0.0848448    1.61138 121 109 111
 -0.976661 -0.0574652    1.63477 35 34 39
0.0449716  -1.32674   1.41433 184 180 179
 -2.98563 -0.789671   1.51121 125 125 137
  -2.52935 -0.0469986    1.22496 57 52 49
  -2.265 0.153852  1.58463 108 108 110
 0.691195 -0.491525   1.44411 26 25 30
-2.80333 0.047191  1.47527 88 89 93
 0.442933 -0.602361   1.40112 103 103 111
 -2.08526 -0.321283   1.55901 42 42 52
 -1.39164 -0.402207   1.54433 107 75 78
 0.457142 -0.572048   1.45409 96 96 104
 -1.44163 -0.356821   1.54466 117 82 88
-0.167815 -0.576013   1.47425 124 127 134
-0.0489802  -0.251929     1.5935 123 122 127
 0.970348 -0.398409     1.507 130 128 133
 0.201171 -0.351417   1.57893 121 120 126
 0.757821 -0.939583   1.22102 144 146 158
  1.36241 -0.772121   1.13963 150 148 151
  1.79352 -0.133674    1.7108 106 70 72
  1.27255 -0.543865   1.25442 81 59 61
0.395909  -0.2047  1.63905 77 78 83
 0.405071 -0.643777   1.41227 91 91 99
 2.88064 0.979936  1.33396 132 128 125
0.528871 -2.15681  1.30006 129 125 122
  1.35271 -0.532895   1.36146 129 128 133
 0.464288 -0.513697   1.47421 127 126 131
 -1.61643 -0.298004    1.6236 118 114 115
 -2.05441 -0.373145   1.53027 141 144 151
 -2.58172 -0.576943   1.53926 131 138 154
 0.989145 -0.720973   1.28809 127 128 133
  1.04608 -0.592147   1.36143 142 141 147
 -1.53686 -0.236381   1.63185 114 112 115
 0.482461 -0.660252   1.40235 129 129 137
  -1.0864 -0.606377   1.49984 135 135 147
 0.535549 -0.470375   1.50625 129 127 132
-0.866918 -0.813977   1.52107 144 148 159
0.383752 -0.30672  1.60749 120 118 121
 -2.17829 -0.629317   1.54735 151 154 169
  1.21628 -0.702653   1.28096 151 146 152
-0.753857 -0.359547   1.52522 126 125 131
 1.23506 -0.94862  1.28435 152 152 162
 -1.52814 -0.240188   1.55461 101 101 111
-0.840817 -0.348807   1.54325 115 114 120
-0.194626 -0.722824   1.40892 127 129 141
 -1.93881 -0.574736   1.50238 132 129 136
-0.892588 -0.184648   1.66861 124 115 118
 0.718863 -0.688495   1.37427 136 136 144
-0.139265 -0.704688   1.49079 133 133 145
0.0466175 -0.633863   1.47218 151 127 125
-0.767957 -0.667578   1.49444 137 136 144
  1.05339 -0.640913   1.28539 142 137 141
 -1.90231 -0.605818   1.49167 131 129 140
  0.44587 -0.661627   1.40529 136 136 144
 -1.86463 -0.492332    1.5193 132 122 130
  0.60728 -0.707946   1.37025 135 130 136
-1.25589 -0.72136  1.51468 141 133 144
 0.904454 -0.668656    1.3371 59 59 69
-0.179108 -0.765323   1.49563 139 142 151
 -1.20456 -0.677267   1.51122 141 129 141
-0.596789  -0.77754   1.45287 128 130 142
 -1.83648 -0.584269   1.52067 134 131 140
 -1.12705 -0.566132   1.49703 39 39 51
 0.434585 -0.625624   1.42028 105 105 113
0.441252 -0.57745  1.43731 104 104 114
 0.986675 -0.569732   1.31635 125 124 132
 0.386609 -0.534165   1.51331 122 117 123
 0.162429 -0.757907   1.47068 126 91 85
 0.374624 -0.575814   1.47131 108 83 86
